<?xml version="1.0" encoding="UTF-8"?>
<!-- Created with Inkscape (http://www.inkscape.org/) -->
<svg width="4.5102mm" height="5.0202mm" version="1.1" viewBox="0 0 4.5102 5.0202" xmlns="http://www.w3.org/2000/svg">
 <g transform="translate(-98.116 -156.18)">
  <g transform="matrix(.26458 0 0 .26458 51.752 -17.874)" fill="#f00">
   <path d="m177.53 666.61c-3.0268 2.156-4.7429 10.428 5.9346 10.196 11.3-0.24481 8.8695-7.8888 7.9234-8.7126-1.3455-1.1715-1.8368 0.0679-0.91544 0.91545 0.98768 0.90849 1.3612 6.3551-6.9764 6.7238-4.7256 0.20899-9.1589-3.5782-5.2717-8.1128 1.168-1.3625 0.36439-1.7644-0.69448-1.0102z"/>
   <path d="m184.55 667.63c2.5892 3.0168-1.6591 3.2641-0.66965 7.0982-3.3337-3.7734 1.7573-3.7229-0.3125-6.0714-1.301-1.4762-2.4954-3.1165 0.44642-5.0893 1.5331-1.0281 1.2768-2.3417 1.0268-3.0357-0.4282-1.1889-4.0286-1.4495-3.125 0.0446 0.54347 0.89865-0.12602 2.4368-1.25 1.25-2.9931-3.1604 2.4507-5.7888 5.5357-2.4107 0.90397 0.98984 1.2844 3.7036-0.9375 5.0893-1.5553 0.96999-2.1102 1.4985-0.71429 3.125z"/>
  </g>
 </g>
</svg>
