<?xml version="1.0" encoding="UTF-8"?>
<!-- Created with Inkscape (http://www.inkscape.org/) -->
<svg width="2.7281mm" height="5.4838mm" version="1.1" viewBox="0 0 2.7281 5.4838" xmlns="http://www.w3.org/2000/svg">
 <g transform="translate(-80.919 -175.29)" fill="#f00">
  <path d="m82.038 179.59c-0.11635 0.27393-0.41038 0.83425-0.50262 0.96604-0.2451 0.35022-0.56907 0.2298-0.57414-0.0731-0.01765-1.0555-0.07169-3.0658-0.02096-4.8464 0.01066-0.37394 0.56444-0.5527 0.52917 0-0.09298 1.457-0.08439 4.3447-0.06711 4.3878 0.01021 0.0255 0.43295-0.29389 0.63566-0.4343z"/>
  <path d="m83.164 179.74c0.24444-0.0993 0.31764-1.0027 0.2692-1.3475-0.01529-0.10893-0.06217-0.14632-0.13069-0.15191-0.70852-0.0579-1.4711-0.0741-2.0898-0.055l0.04961 0.48783c0.54212-0.0243 1.7195-0.0555 1.7424-0.0145 0.03434 0.0614 0.09276 0.86048 0.15932 1.0811z"/>
  <path d="m81.304 177.79c0.64403 0.0182 1.2282 0.0234 1.955 0.0155 0.12014-1e-3 0.09497-0.0481 0.10053-0.13088 0.03143-0.46823 0.18916-1.0703 0.28752-1.5197-0.36471 0.2344-0.56668 0.77609-0.61362 1.16-0.09064 0.0152-0.17036 0.0296-0.26257 0.0198 0.0019-0.4323-0.13604-1.0717-0.45818-1.0702-0.27521 1e-3 -0.46017 0.61785-0.42593 1.006-0.21194 0.0207-0.41296 0.0305-0.59378 0.0201z"/>
 </g>
</svg>
