<?xml version="1.0" encoding="UTF-8"?>
<!-- Created with Inkscape (http://www.inkscape.org/) -->
<svg width="4.7787mm" height="4.956mm" version="1.1" viewBox="0 0 4.7787 4.956" xmlns="http://www.w3.org/2000/svg">
 <g transform="translate(-54.997 -148.37)">
  <g transform="matrix(.26458 0 0 .26458 -83.553 117.57)" fill="#f00">
   <path d="m530.76 135.14c-2.5218-1.2538-2.6544-5.1913-1.4029-6.8241 0.34516 3.6526 4.3232 5.9951 8.7824 2.1302 2.0608-1.7861 2.7617-4.9664 0.37204-7.9798 0.76687-0.29874 0.24377-1.0862 2.1696 0.15014 1.5767 1.0122 0.84057 1.6281 0.96805 2.9586 0.1439 1.502-0.61493 4.0179-2.652 5.8086-1.7454 1.5343-4.4291 2.5363-8.2873 1.9124-0.13479 0.46403 5e-3 1.4763 0.0501 1.8439z"/>
   <path d="m525.54 133.57c-1.9392-0.79247-2.5713-4.2079-0.98214-5.3571 0.61473-0.44457 11.349-10.303 12.411-11.071 1.8394-1.3319 2.893-0.75907 1.2054 1.0714-1.1795 1.2794-9.578 7.6978-12.151 11.42-0.77881 1.1267-0.66034 2.6735-0.4831 3.9373z"/>
   <path d="m532.88 129.61c-1.9546-0.45485-1.9517 1.6643-0.12803 1.6178 1.7232-0.0439 1.0171-1.4109 0.12803-1.6178z"/>
   <path d="m529.91 116.69c-0.26735 0.1207-0.18762 0.64462 0.59375 1.8438 0.80171 1.2304 2.0921 2.2065 2.2143 3.1384 0.34688 2.6452 0.27985 6.3125-0.0723 7.8984 0.49478 0.0996-0.30962 1.1112 0.33779 1.5873 1.5151-1.3503 1.3946-6.7736 2.0291-7.0348 0.41722-0.17177 1.3129 0.37124 2.1161 0.8795 1.0382 0.65696 1.1361-0.24079 0.8125-0.75-1.4585-2.2949-4.5407-5.9495-6.5938-7.0938-0.56072-0.31251-1.1702-0.58945-1.4375-0.46875z"/>
  </g>
 </g>
</svg>
