<?xml version="1.0" encoding="UTF-8"?>
<!-- Created with Inkscape (http://www.inkscape.org/) -->
<svg width="4.3603mm" height="4.6798mm" version="1.1" viewBox="0 0 4.3603 4.6798" xmlns="http://www.w3.org/2000/svg">
 <g transform="translate(-117.52 -112.46)">
  <g transform="matrix(.26458 0 0 .26458 66.573 95.945)">
   <path d="m198.04 64.441c-4.7887 1.422-5.0934 5.1452-4.3904 8.8264 0.45532 2.3843 1.5336 5.2502-1.1029 6.8248 5.9023-1.9713 12.393 1.9853 16.372-6.7522 0.57269-1.2577-1.3068-2.9768-1.5504-1.105-0.72554 5.5745-9.6462 7.5909-11.213 5.2915-1.7981-2.6397-2.4394-11.409 2.1976-11.652 1.4499-0.07594 0.69712-1.7337-0.31313-1.4337z" fill="#f00"/>
   <path d="m205.32 62.904c-3.3855 1.1651-5.6731 6.9614-5.2678 9.375" fill="none" stroke="#f00" stroke-linecap="round"/>
   <path d="m208.31 64.913c-2.9834 1.0998-5.5354 3.0839-6.1607 9.0179" fill="none" stroke="#f00" stroke-linecap="round"/>
   <path transform="rotate(5.3675 198.88 -281.43)" d="m234.87 74.343a1.5848 1.183 0 0 1-1.5745 1.1885 1.5848 1.183 0 0 1-1.5951-1.1731 1.5848 1.183 0 0 1 1.5685-1.1929 1.5848 1.183 0 0 1 1.601 1.1686" fill="#f00"/>
  </g>
 </g>
</svg>
