<?xml version="1.0" encoding="UTF-8"?>
<!-- Created with Inkscape (http://www.inkscape.org/) -->
<svg width="3.1895mm" height="4.4443mm" version="1.1" viewBox="0 0 3.1895 4.4443" xmlns="http://www.w3.org/2000/svg">
 <g transform="translate(-114.7 -116.36)">
  <g transform="matrix(.26458 0 0 .26458 64.904 85.456)" fill="none" stroke="#f00" stroke-linecap="round" stroke-width="1.1">
   <path d="m194.46 133.06c1.7072-2.541-2.5709-2.2825-4.451-1.168 0.43142-1.6166 1.9897-3.4021 3.1883-4.2932"/>
   <path d="m199.71 128.96c-0.16717 0.52863-0.82959 1.0214-1.1301 1.232-1.1032-0.16176-5.138-1.3988-5.6961-3.5464-0.54442-2.0951 0.12179-5.1989 2.3991-6.8817 0.80389 0.61096 2.7333 2.7634 3.6618-1e-5 0.64366-1.9156-1.184-3.5035-1.894-1.4521-0.38077 1.1001 0.1894 1.7046 0.1894 1.7046l0.73546 0.33796 0.16774-1.8206-0.35621-0.30166-0.35082 0.82554"/>
   <path d="m197.87 124.69c-2.6428-1.0219-5.7617-2.3746-8.233 1.1881 0.0992-1.3316-0.18357-2.6202-0.88324-3.099"/>
  </g>
 </g>
</svg>
