<?xml version="1.0" encoding="UTF-8"?>
<!-- Created with Inkscape (http://www.inkscape.org/) -->
<svg width="3.2544mm" height="3.9151mm" version="1.1" viewBox="0 0 3.2544 3.9151" xmlns="http://www.w3.org/2000/svg">
 <g transform="translate(-66.568 -158.54)">
  <g transform="matrix(.26458 0 0 .26458 -68.676 47.536)" fill="#f00">
   <path d="m520.89 432.48c1.4246-0.38712 2.9217-3.119 2.4938-5.6821-0.10305-0.61734-9.8689 0.55785-9.9121-0.0631-0.30153-4.3319-3.1493-0.77833-1.8625 1.1996 0.32783 0.5039 8.4326-0.42969 8.8704 0.18941 0.22295 0.31529 1.0743 2.0413 0.41037 4.3563z"/>
   <path d="m516.38 422.03c-1.5812-1.2608-0.54015-3.359 1.1996-2.115 1.6133 1.1536-0.42182 12.193 1.2311 12.722 1.7001 0.54371 0.29389 2.3907-1.0498 1.4155-1.5427-1.1196 0.36206-10.632-1.3808-12.022z"/>
   <path d="m512.81 423.35c0.8452-0.39227 1.4565-3.5024-0.78918-2.4938-2.0037 0.8999 0.0104 2.8552 0.78918 2.4938z"/>
  </g>
 </g>
</svg>
