<?xml version="1.0" encoding="UTF-8"?>
<!-- Created with Inkscape (http://www.inkscape.org/) -->
<svg width="3.4612mm" height="3.5715mm" version="1.1" viewBox="0 0 3.4612 3.5715" xmlns="http://www.w3.org/2000/svg">
 <g transform="translate(-48.04 -175.49)" fill="#f00">
  <path d="m48.478 175.51c0.64651 0.21777 1.0507 0.59505 1.2573 0.98108 0.41312 0.77194 0.69045 1.9185 1.7663 2.4796-1.5452-0.1034-1.5015-2.4774-3.1654-3-0.51638-0.16219-0.28391-0.60401 0.14174-0.46064z"/>
  <path d="m48.088 179.05c-0.17068-0.18181 1.1835-1.1471 1.8134-1.6078l0.13195 0.19416c-0.66143 0.43702-1.8157 1.5518-1.9454 1.4136z"/>
  <path d="m49.039 178.98c0.27677-0.26784 0.63102-0.59702 0.84694-0.73516 0.11203 0.19904 0.36446 0.53363 0.5763 0.71744z"/>
 </g>
</svg>
