<?xml version="1.0" encoding="UTF-8"?>
<!-- Created with Inkscape (http://www.inkscape.org/) -->
<svg width="4.2698mm" height="5.136mm" version="1.1" viewBox="0 0 4.2698 5.136" xmlns="http://www.w3.org/2000/svg">
 <g transform="translate(-34.696 -167.03)">
  <g fill="#f00">
   <path d="m34.696 170.05c5e-3 0.53303 0.2951 1.2051 0.63396 1.4263 0.17352 0.11325 0.29643 0.0358 0.13639-0.18315-0.50078-0.68514-0.23891-1.0854 0.18202-1.1073 0.18765-0.01 0.18496-0.20475 0.0053-0.23281-0.37787-0.059-0.49941 0.0453-0.87184-0.0233-0.06132-0.0113-0.08647 0.0513-0.08582 0.1203z"/>
   <path d="m34.749 169.44c0.04395-0.41032 0.43002-1.1124 0.56092-1.3565 0.13283-0.24768 0.42569-0.16745 0.27486 0.1418-0.44676 0.91599-0.17185 1.1254 0.09121 1.1585 0.26991 0.0339 0.19802 0.36793-0.04827 0.31524-0.31223-0.0668-0.50726-0.0993-0.74298-0.046-0.16459 0.0372-0.1494-0.0854-0.13573-0.21304z"/>
   <path d="m36.549 167.86c0.0073 0.3323-0.06615 3.8695-0.06615 4.0845 0 0.21498 0.23234 0.38034 0.23234-0.0165 0-0.39688 0.11881-3.9192 0.11492-4.0184-0.01169-0.298 0.51131-0.86474-0.11576-0.87644-0.76725-0.0143-0.17116 0.56318-0.16536 0.82683z"/>
  </g>
  <path d="m38.037 168.52c-0.08168 0.35779 0.26898 0.43038 0.41842 0.3371 0.17434-0.10882 0.26533-0.3721 0.14382-0.66565-0.23406-0.56545-1.1021-0.30835-1.1079 0.42994-0.0052 0.66253 0.41008 0.78589 0.64695 1.1477 0.28587 0.43661 0.15703 1.197-0.82223 1.2005 0.0104 0.22094 0 0.66146 0 0.66146 1.1877 2e-3 2.0134-1.2214 1.188-2.1128" fill="none" stroke="#f00" stroke-linecap="round" stroke-width=".26458px"/>
 </g>
</svg>
