<?xml version="1.0" encoding="UTF-8"?>
<!-- Created with Inkscape (http://www.inkscape.org/) -->
<svg width="3.5945mm" height="4.6264mm" version="1.1" viewBox="0 0 3.5945 4.6264" xmlns="http://www.w3.org/2000/svg">
 <g transform="translate(-73.759 -118.64)">
  <g transform="matrix(.26458 0 0 .26458 -75.509 -9.607)" fill="#f00">
   <path d="m574.21 494.24c0.22735-0.64869 0.34266-1.9238 0.12571-2.5363-2.6389 0.054-5.3457 0.20938-6.8039-0.46241-1.0632-0.48978-1.4407-0.76224-1.9103-0.99436-2.0792-1.0278-1.246 0.79194-1.2821 2.3659-0.0308 1.3418-0.84535 3.1468 1.2344 2.4606 0.9804-0.32348 0.75258-0.41996 1.9306-0.9341 1.4126-0.61649 4.1287 0.0726 6.7057 0.10065z"/>
   <path d="m569.97 492.13c0.0235-1.2409-0.28456-2.8116 1.0009-5.8198 1.4695-3.4388 3.1426-0.51325 1.7424 1.1185-1.6198 1.8875-0.94273 3.6191-1.0482 4.5828-0.17808 0.62912-1.1264 0.36261-1.6951 0.1185z"/>
   <path d="m575.87 501.13c-0.49209 1.3034-3.5523 1.9207-1.774-1.2302 1.8041-3.1966-2.2085-7.1762 0.60651-12.61 1.7835-3.4425 4.865 0.94617 1.6084 1.0738-2.7189 2.6281 0.94927 9.0836-0.44101 12.766z"/>
   <path d="m571.16 501.19c-0.54676 1.2073-3.7021 0.7207-1.5846-0.98848 1.4359-1.159 0.65502-4.4284 0.44011-6.5654 0.26964-0.0997 1.5436-0.4495 1.553-0.018 0.4464 2.5813 0.96191 4.5457-0.40854 7.5718z"/>
  </g>
 </g>
</svg>
