<?xml version="1.0" encoding="UTF-8"?>
<!-- Created with Inkscape (http://www.inkscape.org/) -->
<svg width="3.7484mm" height="4.5959mm" version="1.1" viewBox="0 0 3.7484 4.5959" xmlns="http://www.w3.org/2000/svg">
 <g transform="translate(-83.403 -135.28)">
  <path d="m84.469 137.95c-0.30412-1.8462 1.1133-2.1832 1.8023-1.8018 0.71286 0.3946 0.4032 1.6233-0.39662 2.3569-0.66913 0.61374-1.9458-0.11493-2.1421 0.31478-0.31859 0.69751 0.15713 0.94068 0.51322 1.0578-0.29496-0.25706-0.49922-0.59446-0.25632-0.80202 0.28101-0.24012 1.2021 0.13404 2.0186-0.37417 0.62648-0.38991 2.011-2.4102 0.37089-3.082-3.1683-1.2976-3.8091 1.5037-1.91 2.3306zm-0.24087-1.4296c-0.2579 0.32273-0.73641 0.29224-0.38962-0.35436 0.17025-0.31743 0.56933 0.12947 0.38962 0.35436z" fill="#f00"/>
 </g>
</svg>
