<?xml version="1.0" encoding="UTF-8"?>
<!-- Created with Inkscape (http://www.inkscape.org/) -->
<svg width="4.0501mm" height="5.1566mm" version="1.1" viewBox="0 0 4.0501 5.1566" xmlns="http://www.w3.org/2000/svg">
 <g transform="translate(-58.874 -153.43)">
  <g transform="matrix(.26458 0 0 .26458 8.1774 91.138)" fill="#f00">
   <path d="m204.18 252.39c1.4855 2.1063 3.5605-0.33842 2.3991-1.8354-1.1776-1.5179-3.4243 0.38172-2.3991 1.8354z"/>
   <path d="m204.62 237.39c-0.028 3.391-2.1131 2.8307-2.0834 1.0733-2.1385-0.14257-8.4156 3.0614-6.5344 5.0823 0.86014 0.92406 8.783 0.87959 8.6287-1.1472-0.26598-3.4927 2.4436-2.7159 1.8801 1.3857-0.40395 2.9403-11.972 2.2443-12.561 1.3367-2.1417-3.3027 4.2034-8.5668 8.6494-8.5516 0.18497-1.8408 2.0381-1.3327 2.0203 0.82074z"/>
   <path d="m193.82 252.46c0.0711-1.1994-1.9829-2.8806-2.2027 0.3195-0.21153 3.0796 2.3647 2.3332 2.1396 0.92628 5.4245-0.23602 7.9299-3.8525 7.9865-8.2075l-2.4109 0.0893c0.36399 3.4783-1.4607 6.6974-5.5125 6.8724z"/>
  </g>
 </g>
</svg>
