<?xml version="1.0" encoding="UTF-8"?>
<!-- Created with Inkscape (http://www.inkscape.org/) -->
<svg width="3.6616mm" height="3.9977mm" version="1.1" viewBox="0 0 3.6616 3.9977" xmlns="http://www.w3.org/2000/svg">
 <g transform="translate(-87.247 -187.27)">
  <g transform="matrix(.26458 0 0 .26458 42.941 44.614)" fill="#f00">
   <path d="m174.47 539.19c-0.7193 3.5919-4.1931 6.5558-4.2449 9.8622-0.10918 6.965 8.2622 6.9539 8.2893 0.21843 0.0114-2.8388-3.3829-6.5844-4.0444-10.081zm-0.0446 3.3259c0.47047 1.6427 2.7259 4.543 2.607 6.6474-0.20367 3.6054-4.8559 3.9416-4.9501-0.0813-0.0611-2.6102 2.0628-4.9497 2.3431-6.5661z"/>
   <path d="m169.39 539.89c2.0756-0.0848 3.7086 3.6951-0.018 3.7965 0.33253 0.7307 1.1794 1.9694 2.4885 1.2992l-1.2344 3.047c-0.29093-1.6781-1.861-2.9074-2.1017-4.3622-1.2004-0.071-1.9343-3.6661 0.86557-3.7805zm0.0843 0.98264c-1.2499 0-1.4278 2.0033 0.0675 1.9331 1.4771-0.0694 0.91001-1.9331-0.0675-1.9331z"/>
   <path d="m179.39 540.06c-2.0756-0.0848-3.7086 3.6951 0.018 3.7965-0.33253 0.7307-1.1794 1.9694-2.4885 1.2992l1.2344 3.047c0.29093-1.6781 2.045-3.115 2.2383-4.4121 0.93507-0.4921 1.7976-3.6162-1.0022-3.7306zm-0.0843 0.98264c1.2499 0 1.4278 2.0033-0.0675 1.9331-1.4771-0.0694-0.91001-1.9331 0.0675-1.9331z"/>
  </g>
 </g>
</svg>
