<?xml version="1.0" encoding="UTF-8"?>
<!-- Created with Inkscape (http://www.inkscape.org/) -->
<svg width="3.6277mm" height="4.6189mm" version="1.1" viewBox="0 0 3.6277 4.6189" xmlns="http://www.w3.org/2000/svg">
 <g transform="translate(-89.131 -169.37)" fill="#f00">
  <path d="m91.996 169.37c-0.40583 1.148 0.77459 1.3621 0.76283 2.4889-7e-3 0.67475-0.42809 1.3008-0.72048 1.5473-0.29124 0.24548-0.67885-0.13738-0.23622-0.43702 0.27916-0.18898 0.56697-0.70892 0.56694-1.1339-1.01e-4 -1.1553-1.3844-1.2339-0.37306-2.4653z"/>
  <path d="m91.148 172.09c-0.2659 0.2652 0.07596 0.84877 0.43429 0.451 0.53633-0.59537 0.21984-1.6585-0.27334-1.98 0.06856 0.45227 0.19473 1.1742-0.16095 1.529z"/>
  <path d="m89.561 170.63c-0.06409 0.51071 0.02402 1.2641 0.36545 1.541-0.19808 0.022-0.38857 0.0289-0.5394-0.0435-0.12401 1.3089 1.2602 1.3714 1.4157 0.60024 0.05801 0.18498 0.22048 0.34397 0.4634 0.33897-0.97009 0.64094-1.5643 0.4883-1.9438-0.0258-0.37232-0.50432-0.12943-1.8469 0.23866-2.4109z"/>
  <path d="m90.338 172.67c-0.67564-0.0848-1.1415 0.95579-1.2047 1.2277-0.01879 0.0808 0.10218 0.12742 0.13369 0.0494 0.1068-0.26436 0.45941-0.94975 1.0711-1.2771z"/>
 </g>
</svg>
