<?xml version="1.0" encoding="UTF-8"?>
<!-- Created with Inkscape (http://www.inkscape.org/) -->
<svg width="4.0355mm" height="5.1479mm" version="1.1" viewBox="0 0 4.0355 5.1479" xmlns="http://www.w3.org/2000/svg">
 <g transform="translate(-66.684 -155.24)">
  <g transform="matrix(.26458 0 0 .26458 20.214 -33.772)" fill="#f00">
   <path d="m179.87 714.37c-2.6761 7.6991 5.5937 9.9385 4.2411 1e-5 6.5838 2.4519 6.5519 11.762 1.7411 14.732-3.3313 2.0566-6.6791-0.0172-8.2589 1.8304-0.30136 0.35243-0.23919 0.7664-0.15695 1.1262 0.73336 3.2081-3.2229 1.6115-1.227-1.3047 2.5366-3.7062 5.2381-0.57217 9.1072-2.7232 2.8162-1.5657 3.5928-7.8638 0.35715-9.9554-0.057 3.0109-1.6118 6.3571-4.2857 8.6161-3.6862-1.9554-4.9207-9.2668-1.5178-12.321z"/>
   <path d="m187.96 718.17c0.54633-0.40845 0.98097-0.71277 1.5522-1.5662 0.2811 1.4395-0.10544 2.3986-0.7443 3.12l0.23917 1.0756c0.50287 0.0838 1.3089 0.0264 1.8857-0.20789-0.48976 0.86892-1.1358 1.622-1.8934 1.9387l-0.17091 1.0248c0.40564 0.7601 1.0263 1.3052 1.908 1.5892-0.82903 0.40114-1.658 0.39443-2.4871 0.0816l-0.57811 1.8029c0.22339 0.49843 0.72014 1.0868 1.3867 1.3083-0.81506 0.33637-1.6896 0.22286-2.2999-0.19706l-1.3242 1.0832c-0.12431 0.61773-0.0454 1.0228 0.15564 1.4922-0.96195-0.20577-1.2623-0.87767-1.329-1.4259l-1.6492 0.54973c-0.30021 0.50633-0.38399 1.1518-0.26719 1.6632-0.60304-0.30299-0.90816-0.8046-0.97952-1.5662l-1.7915 0.0417c-0.34076 0.39352-0.60332 1.0791-0.58775 1.5914-0.35037-0.40511-0.47014-0.99474-0.52291-1.4594l0.35157-0.64111c1.4942-0.26658 3.0675-0.13531 4.3235-0.4277 1.2559-0.29239 2.214-0.70174 3.1764-1.1915l1.9572-4.9245z"/>
  </g>
 </g>
</svg>
