<?xml version="1.0" encoding="UTF-8"?>
<!-- Created with Inkscape (http://www.inkscape.org/) -->
<svg width="3.9826mm" height="4.8797mm" version="1.1" viewBox="0 0 3.9826 4.8797" xmlns="http://www.w3.org/2000/svg">
 <g transform="translate(-73 -161.96)">
  <g transform="matrix(.26458 0 0 .26458 19.649 2.6234)" fill="#f00">
   <path d="m213.68 617.31c-1.6625 0.65969-3.8793 2.4382-7.244 3.3345 0.55724-3.9604 3.8346-9.4698 2.1408-11.369 0.61971-0.9384 1.8064-1.5338 2.8946-1.9602-0.0457 1.352-0.95075 1.637-0.98847 2.7322-0.10471 3.04-1.7779 6.0577-2.3124 8.6283 1.81-0.53002 3.2275-1.899 4.8002-2.546 0.31845-2.783 2.3116-4.1668 3.4378-1.1368 1.1586 3.1171-1.543 2.5038-2.7286 2.3171z"/>
   <path d="m205.02 604.98c1.481 3.6347-2.2267 7.8257-3.3775 11.585 7.0042-0.64207 9.3074-4.7313 12.326-6.8813 2.0944 0.32581 2.666-0.81168 1.7143-2.1998-1.2662-1.847-2.3341-1.0511-2.2036 1.0634-2.2683 1.2568-4.7661 5.1523-9.7849 6.3681 0.99388-2.321 2.9063-5.32 2.9683-9.152 0.0261-1.6115 1.632-1.5533 1.8608-3.5608-1.3076 0.63314-2.625 1.3812-3.5038 2.7778z"/>
  </g>
 </g>
</svg>
