<?xml version="1.0" encoding="UTF-8"?>
<!-- Created with Inkscape (http://www.inkscape.org/) -->
<svg width="3.833mm" height="4.8609mm" version="1.1" viewBox="0 0 3.833 4.8609" xmlns="http://www.w3.org/2000/svg">
 <g transform="translate(-96.849 -129.46)">
  <g transform="matrix(.26458 0 0 .26458 44.133 83.218)" fill="#f00">
   <path d="m200.97 179.63c-1.1923 1.9872-2.8921 10.422-0.56635 9.8233 4.4725-1.151 6.7685-8.7954 6.6053-8.824 0 0 1.8532 9.7736 4.6014 8.8961 2.7718-0.88508 2.3083-6.9123 1.5-8.5288-1.2813 2.1615-2.5402 3.9645-3.8215 5.1161l0.067 0.98214c1.1388-1.0468 2.447-2.3531 3.4228-4.0517 0 0 0.41711 4.141-1.19 4.6767-1.6071 0.53571-4.3488-12.964-4.3488-12.964-0.44099 3.31-1.8721 7.4068-3.3297 9.7493-0.85101-1.3611-2.2973-3.8654-2.9401-4.8756z"/>
   <path d="m200.99 188.19c0.31021 2.6702 1.2006 3.6695 2.2739 3.805 1.3542 0.1709 2.6488-1.167 2.4583-2.8675-0.84822-0.0711-1.6964 0.0122-2.5446 0.17866 1.5656-1.5773 2.8349-3.6774 3.7054-5.4018 0.34429 2.1918 1.2672 4.1609 2.3214 5.9375-0.78869-0.3182-1.5774-0.60035-2.3661-0.62499 0.20594 2.1352-1.6138 3.993-3.5722 3.9101-1.5381-0.0652-2.8589-1.1605-3.1688-4.1333z"/>
  </g>
 </g>
</svg>
