<?xml version="1.0" encoding="UTF-8"?>
<!-- Created with Inkscape (http://www.inkscape.org/) -->
<svg width="3.6831mm" height="4.2105mm" version="1.1" viewBox="0 0 3.6831 4.2105" xmlns="http://www.w3.org/2000/svg">
 <g transform="translate(-76.021 -164.39)">
  <g fill="#f00">
   <path d="m76.881 166.23c-1.2563-0.17497-0.97012 1.6584-0.19293 1.6977 1.0297 0.0521 1.447-1.523 0.19293-1.6977zm-0.12571 1.3071c-0.73471-0.13948-0.65667-1.1436 0.13037-0.94664 0.99432 0.24891 0.32766 1.0336-0.13037 0.94664z"/>
   <path d="m78.118 168.45c-0.0028 0.25024 1.261 0.14389 1.2848 0.0848 0.09586-0.23771-0.1511-2.5471 0.03816-3.4482l-0.53788-0.17539c-0.07344 1.9589 0.16352 2.6572 0.04594 2.962-0.08914 0.23109-0.82912 0.40446-0.83104 0.57683z"/>
   <path d="m77.932 164.45c-0.15178 0.23371 0.32069 0.42351 0.76541 0.70039 0.42639 0.26547 0.90778 0.38823 0.96516 0.27598 0.04683-0.0916 0.06503-0.81034-0.0058-0.9179-0.07779-0.11806-0.37199 0.0897-0.63367 0.0715-0.34327-0.0238-0.9866-0.29079-1.091-0.12997z"/>
  </g>
  <path d="m77.403 166.73c0.76543-0.12799 1.2692-0.54733 1.6702-0.99218" fill="none" stroke="#f00" stroke-width=".37042"/>
  <path d="m77.469 167.21c0.53143 0.10701 1.2496-0.0212 1.6283-0.62838" fill="none" stroke="#f00" stroke-width=".37042"/>
 </g>
</svg>
