<?xml version="1.0" encoding="UTF-8"?>
<!-- Created with Inkscape (http://www.inkscape.org/) -->
<svg width="3.0566mm" height="4.5197mm" version="1.1" viewBox="0 0 3.0566 4.5197" xmlns="http://www.w3.org/2000/svg">
 <g transform="translate(-83.421 -156.62)">
  <path d="m86.176 160.19c-0.59841-0.48707-1.8204-0.63638-2.5871-0.0352-0.02154-0.5552-0.03302-1.1104-0.0118-1.6656 0.31512 0.10504 0.63024 0.26459 0.94536 0.4311-0.066-0.61834-0.07661-1.1868-0.04134-1.8012 0.46764 0.36963 0.9494 0.80444 1.4114 1.2638l-3e-6 -0.88584" fill="none" stroke="#f00" stroke-width=".29104"/>
  <path d="m84.848 160.84a0.28713 0.28058 0 0 1-0.28626 0.28058 0.28713 0.28058 0 0 1-0.28801-0.27886 0.28713 0.28058 0 0 1 0.28449-0.28228 0.28713 0.28058 0 0 1 0.28975 0.27713" fill="#f00"/>
  <path d="m85.684 160.87a0.26246 0.27055 0 0 1-0.26166 0.27055 0.26246 0.27055 0 0 1-0.26326-0.26889 0.26246 0.27055 0 0 1 0.26005-0.27219 0.26246 0.27055 0 0 1 0.26485 0.26722" fill="#f00"/>
  <path d="m85.944 156.76c0.55754-4e-3 0.47545 0.62787 0 0.62722-0.44843-5.3e-4 -0.4409-0.62375 0-0.62722z" fill="none" stroke="#f00" stroke-width=".29104"/>
 </g>
</svg>
