<?xml version="1.0" encoding="UTF-8"?>
<!-- Created with Inkscape (http://www.inkscape.org/) -->
<svg width="3.6735mm" height="4.9442mm" version="1.1" viewBox="0 0 3.6735 4.9442" xmlns="http://www.w3.org/2000/svg">
 <g transform="translate(-98.298 -155.45)">
  <g transform="matrix(.26458 0 0 .26458 47.995 79.563)" fill="#f00">
   <path d="m192.3 290.87c0.0454-1.4518 0.6375-2.9213 1.2311-4.0404 1.0666 1.8536 5.3583 0.19245 5.7145 4.4428 0.13051 1.5574-0.6224 4.5864-6.4412 5.3119 0.26429 3.4321 4.0321 3.4925 3.0673 6.347-2.708-3.3507-6.3115-0.0186-3.4454 2.5852-4.7463-1.5725-1.1619-6.2936 1.9176-4.8936-1.5272-1.0152-2.8768-3.2808-3.0686-5.4223 12.129-0.30098 5.4626-10.084 1.0248-4.3306z"/>
   <path d="m195.88 292.22c7.12-0.55301 10.244 7.6704 2.0981 11.651 4.8585-4.2562 5.8974-8.781-2.0981-11.651z"/>
   <path d="m204.01 290.04c-2.2744 2.1011-2.0685 12.008-1.0714 13.392 0.18862-2.6587 0.48974-10.781 1.0714-13.392z"/>
  </g>
 </g>
</svg>
