<?xml version="1.0" encoding="UTF-8"?>
<!-- Created with Inkscape (http://www.inkscape.org/) -->
<svg width="3.9311mm" height="4.0971mm" version="1.1" viewBox="0 0 3.9311 4.0971" xmlns="http://www.w3.org/2000/svg">
 <g transform="translate(-115.54 -163.48)" fill="#f00">
  <path d="m117.19 166.04c0.0124-0.54275 0.67569-0.42906 0.69862-0.0411 0.0205 0.34706-0.70678 0.39959-0.69862 0.0411z"/>
  <path d="m115.7 165.12c0.16106-1.5182 2.5463-1.0982 2.4428-0.13029-0.35992-0.59487-1.84-0.89693-2.0376 0.18533-0.0363 0.19865-0.46469 0.50631-0.40514-0.055z"/>
  <path d="m117.55 163.99c0.71397 0.17044 1.4432 1.1647 1.5903 1.1927 0.26142 0.0498 0.53719-0.14011 0.0819-0.24555-0.2657-0.0615-0.66116-1.1269-1.3544-1.4026-0.58113-0.2311-0.65395 0.37518-0.31772 0.45545z"/>
  <path d="m116.04 166.21c0.0403 0.38299 0.6751 0.36451 0.4961-8e-3 -0.10878-0.22653 0.0636-0.782 0.64492-1.2402-0.51453 0.22537-1.2682 0.72549-1.141 1.2485z"/>
  <path d="m115.56 165.84c-0.11486 0.61508 0.1472 0.81838 0.40793 1.0456 0.26598 0.23178 0.5089-0.0413 0.21834-0.22738-0.19455-0.12458-0.50208-0.33563-0.62627-0.81819z"/>
  <path d="m117.51 167.19c0.19566-0.12833 0.12459-0.57458-0.20718-0.29351-0.32456 0.27496-0.5925 0.2309-1.0704 0.19855 0.46263 0.23622 1.0801 0.22451 1.2776 0.095z"/>
  <path d="m118.11 166.89c9e-3 -0.26035 0.29215-0.37563 0.30201 0.0258 0.0146 0.59475-0.45513 0.7042-0.88666 0.65239 0.38279-0.19145 0.58969-0.33654 0.58465-0.6782z"/>
  <path d="m118.27 165.7c-0.36856-0.30344 0.0161-0.74778 0.34495-0.36833 0.19657 0.22679 0.64786 0.75813 0.49111 1.6078-0.0497-0.60997-0.68241-1.113-0.83606-1.2395z"/>
  <path d="m118.53 166.9c-0.18437-0.13249-0.11955-0.51736 0.0994-0.31571 0.21155 0.19485 0.2836 0.77141 0.24556 0.92375-0.0201-0.0705-0.0202-0.37457-0.34495-0.60804z"/>
 </g>
</svg>
