<?xml version="1.0" encoding="UTF-8"?>
<!-- Created with Inkscape (http://www.inkscape.org/) -->
<svg width="4.14mm" height="4.416mm" version="1.1" viewBox="0 0 4.14 4.416" xmlns="http://www.w3.org/2000/svg">
 <g transform="translate(-65.26 -138.81)">
  <g transform="matrix(.26458 0 0 .26458 -72.009 75.6)" fill="#f00">
   <path d="m530.97 248.88c4.6791-2.0182 4.1301-7.9069 1.3951-9.6301-1.2645-0.79671-3.1608 1.2319-1.1259 2.1981 0.87792 0.41688 2.9786 2.7119-0.26916 7.4319z"/>
   <path d="m521.02 240.41c-2.8283 1.8203-2.8067 7.9239-0.69287 9.6296 1.1631 0.93855 3.1736-0.66032 1.239-1.8142-0.83467-0.49785-2.3306-1.9075-0.54613-7.8153z"/>
   <path d="m522.99 252.46c1.2872-2.2299 4.1065-3.1397 6.2761-1.6868 1.1507 0.77052 0.0484 2.0872-1.103 1.2264-1.2563-0.93922-3.566-0.39477-5.1732 0.46042z"/>
   <path d="m529.7 243.02c-1.1517 2.6996-4.9376 3.425-7.3135 1.5199-1.1626-0.93225 0.43984-2.2175 1.3907-1.0101 1.1385 1.4456 3.6111 0.99966 5.9228-0.50975z"/>
   <path d="m526.27 255.58c-1.3244-0.81406-1.2903-12.855-0.0516-15.669 0.92793-2.1081 2.6127-0.58457 1.3362 1.2582-1.8052 2.6062-1.5238 11.128-1.2846 14.411z"/>
  </g>
 </g>
</svg>
