<?xml version="1.0" encoding="UTF-8"?>
<!-- Created with Inkscape (http://www.inkscape.org/) -->
<svg width="4.2655mm" height="5.3082mm" version="1.1" viewBox="0 0 4.2655 5.3082" xmlns="http://www.w3.org/2000/svg">
 <g transform="translate(-64.069 -148.68)">
  <g transform="matrix(.26458 0 0 .26458 -162.33 119.16)" fill="#f00">
   <path d="m862.72 125.08c-0.4404-4.3615-0.12305-7.3936 4.7188-7.3125 2.221 0.0372 2.3328-1.4295 3.0625-4.4062 0.63975 3.5801-0.53578 6.2897-2.9688 6.125-2.1249-0.14388-3.2634 0.55021-3.1562 2.9062-0.88164 1.046-1.1747 1.4394-1.6562 2.6875z"/>
   <path d="m862.12 111.56c-2.1344-0.0355-6.515 5.6893-6.4375 9.5 0.10092 4.9641 6.3413 3.6064 7.625 10.562-0.0276-3.162 0.20713-5.7767 1.2188-7.4062 1.8468-2.9748 4.6618 1.2148 7.2768-5.7125-4.2584 6.3711-7.1386-0.79934-9.4956 7.4312-3.1439-2.2852-3.816-4.8822-0.0625-7.0625-6.2254 0.33312-2.2991-4.6631-0.125-7.3125zm-3.4268 9.5092c-0.0457 1.6607-1.7575 1.2633-1.6547-0.0663 0.11541-1.4927 1.6866-1.094 1.6547 0.0663z"/>
  </g>
 </g>
</svg>
