<?xml version="1.0" encoding="UTF-8"?>
<!-- Created with Inkscape (http://www.inkscape.org/) -->
<svg width="4.5605mm" height="5.0148mm" version="1.1" viewBox="0 0 4.5605 5.0148" xmlns="http://www.w3.org/2000/svg">
 <g transform="translate(-57.037 -139.81)" fill="#f00">
  <path d="m58.517 139.81c-0.29063 0.49821-0.32692 1.0497 0.13363 1.4365-0.41282 0.81926-1.0055 1.5855-1.6139 2.31 1.3769 0.0509 1.3625 0.50885 0.02405 1.2683 1.8284-0.42521 1.8125-1.4925 0.52818-1.5478 0.51595-0.62935 0.97879-1.3048 1.3373-1.9971 0.13118 7e-3 0.25201-0.0179 0.36748-0.0585-0.60628-0.20138-0.84647-0.69124-0.77671-1.4114z"/>
  <path d="m60.59 140.02c0.33192 0.48392 0.19806 1.1731-0.29308 1.407 0.36918 0.85417 0.65759 1.2059 1.3009 1.9025-1.1648 0.47649-1.0418 0.80479-0.54374 1.2801-1.5938-0.26393-0.42966-1.2528 0.08051-1.349-0.47182-0.61044-0.83445-1.107-1.0761-1.7845-0.13118 7e-3 -0.24927-0.0735-0.33968-0.13911 0.62946-0.13889 0.89696-0.75037 0.87121-1.317z"/>
  <path d="m59.324 143.59c-0.17871 0.13817-0.12335 0.33451 0.11221 0.21851 0.41972-0.20669 0.44429-0.87398 0.08267-1.0925-0.44103-0.26655-0.30135-0.70096-0.03707-0.6846 0.17914 0.0111 0.27554-0.25279 0.0269-0.29617-0.51101-0.0892-0.8772 0.81566-0.17881 1.1461 0.31618 0.14961 0.30919 0.46507-0.0059 0.70866z"/>
 </g>
</svg>
