<?xml version="1.0" encoding="UTF-8"?>
<!-- Created with Inkscape (http://www.inkscape.org/) -->
<svg width="3.6834mm" height="4.1502mm" version="1.1" viewBox="0 0 3.6834 4.1502" xmlns="http://www.w3.org/2000/svg">
 <g transform="translate(-108.08 -201.81)">
  <path d="m108.12 205.63c0.12055-1.2437-0.0976-3.2795-0.023-3.4216 0.26129-0.49767 0.66571-0.48668 0.61413-0.1358-0.0162 0.1099-0.18085 0.3049-0.19283 0.42456-0.0302 0.30141-0.0101 2.4857-0.0345 3.1301-0.0175 0.46189-0.40646 0.44311-0.36377 3e-3z" fill="#f00"/>
  <path d="m109.41 205.37c-2e-3 0.39512 0.63156 0.41059 0.64111 0.0123 0.0102-0.4258-0.63873-0.44821-0.64111-0.0123z" fill="none" stroke="#f00" stroke-width=".26458px"/>
  <g fill="#f00">
   <path d="m108.49 202.65c0.6154 0.51356 2.5496 1.8345 2.775 1.8168 0 0 0.19725 0.4986-4e-3 0.4149-0.20084-0.0837-2.2643-1.5273-2.8117-1.6612 0.0197 0.0821-0.0203-0.62951 0.0402-0.57057z"/>
   <path d="m111.48 202.88c0.75986-1.0043-0.25558-1.4733-0.28006-0.65231-4e-3 0.14621-0.13739 2.6272-0.16757 3.2714-0.0216 0.46171 0.35197 0.47597 0.36606 0.0337 0.0247-0.77488 0.0905-1.7878 0.0816-2.6528z"/>
   <path d="m111.28 202.53c-0.62367 0.50348-2.5791 1.7928-2.8042 1.7714 0 0-0.20534 0.49532-3e-3 0.41492 0.20217-0.0804 2.4442-1.5825 2.8395-1.6862-0.021 0.0817 0.0293-0.55811-0.0321-0.50015z"/>
  </g>
 </g>
</svg>
