<?xml version="1.0" encoding="UTF-8"?>
<!-- Created with Inkscape (http://www.inkscape.org/) -->
<svg width="4.4409mm" height="4.097mm" version="1.1" viewBox="0 0 4.4409 4.097" xmlns="http://www.w3.org/2000/svg">
 <g transform="translate(-87.242 -168.16)" fill="#f00">
  <path d="m89.077 171.67c-0.25039 0.72773 0.19435 0.30267 0.3266 0.29919 0.1571-4e-3 0.52763 0.4747 0.33068-0.27781-0.11765-0.44953-0.43729-0.66074-0.65728-0.0214z"/>
  <path d="m88.043 171.49c0.70509-0.61018 1.0553-1.8098 1.1324-2.7745 0.053-0.66386 0.45794-0.80546 0.55397-0.0248 0.12272 0.99761 0.77939 3.3157 1.1989 3.0675 0.14232-0.0842 0.3763-0.45455 0.54854-0.31135 0.14584 0.12124-0.13289 0.87363-0.55798 0.80544-0.56971-0.0914-1.0012-1.2509-1.1728-2.1339-0.19169-0.0975-0.45356-0.17013-0.63811-0.10127-0.11971 0.9877-0.72731 1.5598-1.1032 2.0101-0.565 0.67691-0.92385-0.33764-0.68967-0.58318 0.29005-0.30412 0.63487-0.0946 0.72799 0.046z"/>
  <path d="m88.096 170.62c0.56656-0.55788 2.0346-0.655 2.7487 0.0901 0.65559 0.68407 1.1974 0.11148 0.54023-0.87013-0.65432-0.97733-1.2195-0.46949-0.9352-0.18201 0.20487 0.20718 0.29932 0.54569-0.11835 0.31347-0.32957-0.18324-1.3467-0.32599-1.6507-0.23245-0.13848 0.0426-0.0944-0.17526-0.01582-0.34922 0.29662-0.65668-0.56951-0.11968-1.0203 0.61899-0.40445 0.6628-0.22638 1.2786 0.45143 0.61122z"/>
 </g>
</svg>
