<?xml version="1.0" encoding="UTF-8"?>
<!-- Created with Inkscape (http://www.inkscape.org/) -->
<svg width="3.3486mm" height="4.721mm" version="1.1" viewBox="0 0 3.3486 4.721" xmlns="http://www.w3.org/2000/svg">
 <g transform="translate(-54.329 -159.99)" fill="#f00">
  <path d="m54.661 159.99c-0.13878 0.19293-0.23767 0.87513-0.11718 1.0678 0.1208 0.19319 1.0282 0.90593 1.3608 0.90867 0.26151 2e-3 1.036-0.43014 1.2037-0.59573 0.50389 0.83154 0.90319-0.53228 0.1571-0.51263-0.28076 7e-3 -0.89068 0.71801-1.3725 0.71934-0.44573 1e-3 -1.1599-0.89528-1.232-1.5875z"/>
  <path d="m54.538 162.27c0.7913 0.0876 1.0879 0.63914 1.3169 0.6341 0.20037-4e-3 0.66706-0.4656 0.95919-0.43324 0.07205 0.66395 0.54842 0.37869 0.57518-0.10984 0.02122-0.38734-0.15729-0.65041-0.68876-0.30515-0.1815 0.11791-0.67815 0.41982-0.8391 0.4223-0.17834 3e-3 -1.3384-0.7102-1.4509-1.1306-0.17103 0.2879-0.04608 0.90322 0.1275 0.92243z"/>
  <path d="m56.539 164.23c-0.69806-0.12893-0.74777-0.56373-0.70583-0.90525 0.0295-0.24019-0.24718-0.27806-0.28721-0.0199-0.05451 0.35151-0.09081 1.1021 0.99304 0.9252z"/>
  <path d="m56.508 164.47c-1.6531 0.349-1.3519-1.0774-1.3756-1.2918-0.03141-0.28468-0.31392-0.68216-0.52814-0.50117-0.21294 0.17989 0.15056 0.28496 0.16333 0.59314 0.01693 0.40877 0.20875 2.0516 1.7404 1.1998z"/>
 </g>
</svg>
