<?xml version="1.0" encoding="UTF-8"?>
<!-- Created with Inkscape (http://www.inkscape.org/) -->
<svg width="3.3257mm" height="4.5292mm" version="1.1" viewBox="0 0 3.3257 4.5292" xmlns="http://www.w3.org/2000/svg">
 <g transform="translate(-73.321 -135.17)">
  <g transform="matrix(.26458 0 0 .26458 -64.471 -6.3119)" fill="#f00">
   <path d="m527.47 534.72c-0.85184 5.1315-5.0797 5.6242-3.5041 9.8044 0.73159 1.941 5.5321 2.2745 6.1399-0.30271 0.92185-3.9086-1.503-4.4465-2.6359-9.5017z"/>
   <path d="m524.31 551.65c-0.97167-0.0496-1.2887-1.5938-1.3323-4.2009-3.5779-2.3835-1.9731-6.5224-0.72294-7.404 0.55007-0.38791 0.29898-2.2618 0.77525-2.9247 0.35658 0.6643 0.37185 3.0956 0.0237 3.6234-2.5006 3.7912 0.34164 5.5088 1.3363 5.9802-0.15406 1.5398-0.23517 3.3556-0.08 4.926z"/>
   <path d="m528.74 551.84c1.1373-0.48571 1.2826-1.7299 1.3769-3.7545 3.951-1.6321 3.5584-5.6312 2.5903-7.2777-0.34115-0.58023-0.11277-2.3881-0.94616-3.1403-0.35658 0.6643-0.33013 3.342-0.11299 3.9359 1.499 4.0996-1.7019 5.1238-2.8988 5.5338 0.15406 1.5398 0.19053 3.2217-9e-3 4.7028z"/>
  </g>
 </g>
</svg>
