<?xml version="1.0" encoding="UTF-8"?>
<!-- Created with Inkscape (http://www.inkscape.org/) -->
<svg width="3.8899mm" height="4.6889mm" version="1.1" viewBox="0 0 3.8899 4.6889" xmlns="http://www.w3.org/2000/svg">
 <g transform="translate(-72.91 -145.95)">
  <path d="m74.639 145.96c0.03589 0.6211 0.06693 1.2505 0.03443 1.7416-0.03262 0.49294-1.3614 1.4723-1.3824 0.41982-0.0245-1.2303 0.74874-0.86766 0.78548-0.26813 0.61124-0.64826-1.0199-2.0965-1.1599 0.30593-0.11496 1.973 1.3383 0.94366 1.4658 0.73587 0.33891 0.54392 0.34061 1.1723 0.4043 1.7455 0.06607-0.25316 0.12171-0.65636 0.1414-0.87736 0.57579 0.39526 1.2319-0.28966 1.0914-1.0004-0.25773 0.61979-0.9631 0.94687-1.0335 0.17363-0.01915-0.21032 0.01492-0.6091 0.05737-0.86749 1.2065 0.21854 2.2365-0.60263 1.5207-1.639 0.21967 1.3622-1.4033 1.2506-1.3962 0.84403 0.0079-0.45209 0.04676-0.848 0.13137-1.3223-0.27111 8e-3 -0.5633 6e-3 -0.66029 8e-3z" fill="#f00"/>
 </g>
</svg>
