<?xml version="1.0" encoding="UTF-8"?>
<!-- Created with Inkscape (http://www.inkscape.org/) -->
<svg width="3.3818mm" height="3.9412mm" version="1.1" viewBox="0 0 3.3818 3.9412" xmlns="http://www.w3.org/2000/svg">
 <g transform="translate(-63.082 -162.1)" fill="#f00">
  <path d="m65.84 162.99c-0.22534-0.26081-0.67507-0.42122-1.1459-0.38587 0.08996 0.41255 0.15511 0.97051 0.16222 1.501 4e-3 0.29552-0.1157 1.0662-0.33375 1.4933-0.12789 0.25052-0.36719 0.0717-0.26568-0.14758 0.17897-0.38662 0.22551-0.78378 0.24476-1.3312 0.02379-0.67666-0.0959-1.3702-0.46235-1.9833 0.53151 0.0412 1.1453-0.0539 1.8124-0.0351 0.02318 0.25073 0.03953 0.61744-0.01169 0.88867z"/>
  <path d="m64.469 163.19c-0.14032 0.2592-0.32115 0.4503-0.60461 0.66367-0.12727-0.23843-0.14681-0.47357-0.07016-0.91206-0.25839 0.0606-0.34569-0.0748-0.2917-0.28518-0.52355-0.13773-0.60381 0.59324 0.02418 0.6166-0.0084 0.17981-0.06707 0.99469 0.22075 0.98405 0.41027-0.0152 0.75821-0.54049 0.78586-0.64028z"/>
  <path d="m64.474 165.79c0.39338-0.12462 0.53175-2.1214 1.2658-2.0777 0.406 0.0242 0.32176 0.58937 0.44511 0.72522 0.1416 0.15596 0.41575 0.33051 0.1969 0.55125-0.12454 0.12561-0.47764-0.18995-0.46939-0.42759 0.0058-0.16667 0.0478-0.45904-0.1837-0.46593-0.56856-0.0169-0.52228 1.9603-1.1996 1.9488-0.2629-4e-3 -0.35857-0.15787-0.05508-0.25402z"/>
 </g>
</svg>
