<?xml version="1.0" encoding="UTF-8"?>
<!-- Created with Inkscape (http://www.inkscape.org/) -->
<svg width="4.6166mm" height="4.7138mm" version="1.1" viewBox="0 0 4.6166 4.7138" xmlns="http://www.w3.org/2000/svg">
 <g transform="translate(-107.83 -181.04)">
  <g transform="matrix(.26458 0 0 .26458 58.14 69.091)" fill="#f00">
   <path d="m197.77 425.28c3.6906-3.6476 6.6913 0.51018 3.5987 4.1984-0.96668-3.3494-2.0802-4.0102-3.5987-4.1984z"/>
   <path d="m194.46 423.13c-1.8433 1.4488-5.3842 6.2808-6.654 8.9933 2.3411 0.15043 4.6822 0.23419 7.0232 0.24743 0.33065 2e-3 0.38533 0.13291 0.39014 0.32414 0.0511 2.029 0.51404 4.6327 1.1179 6.5534 2.5917-2.5107 5.0648-5.0689 7.0663-7.8157-2.0664-0.18961-4.6381-0.46274-6.2481-1.0887-1.3884-1.8709-2.1527-4.9282-2.6955-7.214zm7.0482 9.051c-1.2051 1.5639-3.434 4.116-4.6362 5.0162-0.35896-0.79674-0.67194-3.2205-0.58053-4.4346 0.0298-0.39621 0.77932-1.2663 1.0763-1.1985 1.2648 0.28858 4.1404 0.61689 4.1404 0.61689z"/>
   <path d="m203.99 432.32c-2.1324 2.5518-4.8648 5.8895-6.7238 7.3552-0.99724 0.78622 0.0885 1.6485 0.69448 1.1048 2.3706-2.1268 4.872-5.1803 7.1658-8.2075 0.38606-0.5095-0.0804-1.5163-1.1364-0.25255z"/>
  </g>
 </g>
</svg>
