<?xml version="1.0" encoding="UTF-8"?>
<!-- Created with Inkscape (http://www.inkscape.org/) -->
<svg width="2.8137mm" height="3.8221mm" version="1.1" viewBox="0 0 2.8137 3.8221" xmlns="http://www.w3.org/2000/svg">
 <g transform="translate(-85.396 -146.74)">
  <g transform="matrix(.26458 0 0 .26458 -55.212 -10.548)" fill="#f00">
   <path d="m539.93 594.64c-5.3372 2.1213 1.2762 8.4723-1.6368 13.144-0.74121 1.1888 0.59994 1.3784 1.0167 0.82948 1.9467-2.5639 1.1566-5.3353 0.3975-7.671-0.84231-2.5917-1.7577-5.5651 0.60501-5.0627 2.86 0.60811 1.8434-2.1248-0.38237-1.2401z"/>
   <path d="m531.86 597.74c1.1389 1.6544 2.8989 3.3756 3.5595 3.3989 0.69207 0.0244 2.2428-1.0083 2.9882-1.7467-7e-3 -0.26991-0.1889-1.0493-0.20286-1.4311-0.7473 0.94842-2.217 1.8554-2.7548 1.835-0.61254-0.0233-1.6402-1.0161-1.6717-2.6562-0.0565-2.9389-3.5332-1.7456-1.9183 0.60016z"/>
   <path d="m532.53 603.99c1.1363 1.7074 2.5347 2.4254 3.1638 2.4709 0.90608 0.0655 2.7169-1.4862 3.608-2.5632-7e-3 -0.26991-0.12576-1.2071-0.13972-1.5889-0.31155 0.7176-2.4881 2.857-3.3742 2.9379-0.66601 0.0608-1.78-1.0521-1.9646-2.2586-0.23683-1.5477-2.9757-1.526-1.2933 1.0019z"/>
  </g>
 </g>
</svg>
